:version 1.10
:name ASF
:units
  mass 1
  length 1
  angle deg
:documentation
  ASF file generated by Kaydara
:root
  axis xyz
  order  tx ty tz rx ry rz
  position 0 0 0
  orientation 0 0 0
:bonedata
  begin
    id 1
    name RightUpLegDummy
    direction -0.718183 -0.695806 0.00816078
    length 4.904
    axis 0 0 0 xyz
  end
  begin
    id 2
    name RightUpLeg
    direction -0.00334265 -0.999142 0.0412837
    length 17.4976
    axis -0.59612 0.00940841 -0.192072 xyz
    dof rx ry rz
  end
  begin
    id 3
    name RightLeg
    direction 0.000365068 -0.988824 -0.149089
    length 16.5821
    axis 6.58657 0.0604092 -0.318554 xyz
    dof rx ry rz
  end
  begin
    id 4
    name RightFoot
    direction 0.00079069 -0.460991 0.887405
    length 3.77069
    axis 0.000105557 -0.120464 -0.188919 xyz
    dof rx ry rz
  end
  begin
    id 5
    name RightToes
    direction 0.00124768 -0.014065 0.9999
    length 3.85082
    axis 0.00053932 0.542178 -0.142707 xyz
    dof rx ry rz
  end
  begin
    id 6
    name SpineDummy
    direction 8.3039e-015 1 4.58682e-016
    length 4.6813
    axis 0 0 0 xyz
  end
  begin
    id 7
    name Spine
    direction 4.12799e-006 0.999988 0.00494944
    length 10.1015
    axis -0.00149944 0.000129667 -0.000235877 xyz
    dof rx ry rz
  end
  begin
    id 8
    name Spine1
    direction 0 0 0
    length 0
    axis -0.00160567 0.000129431 -0.000308381 xyz
    dof rx ry rz
  end
  begin
    id 9
    name HEadDummy
    direction 5.38513e-006 0.999999 0.00127044
    length 3.43865
    axis -0.00160567 0.000129431 -0.000308381 xyz
  end
  begin
    id 10
    name HEad
    direction -0.0226495 0.980942 0.192974
    length 5.12695
    axis -0.00160642 -0.114462 -0.000307946 xyz
    dof rx ry rz
  end
  begin
    id 11
    name LeftShoulder1Dummy
    direction 0.99889 -0.0402564 -0.0244456
    length 3.5433
    axis -0.00160567 0.000129431 -0.000308381 xyz
  end
  begin
    id 12
    name LeftShoulder1
    direction 0.999464 -0.00142945 0.0326977
    length 4.05031
    axis 0.393425 -0.0796525 -0.0507861 xyz
    dof rx ry rz
  end
  begin
    id 13
    name LeftArm
    direction 0.998564 -0.000899612 -0.053557
    length 10.3537
    axis -22.9476 0.126974 0.960871 xyz
    dof rx ry rz
  end
  begin
    id 14
    name LeftForeArm
    direction 0.998903 0.00865904 0.0460121
    length 8.70632
    axis -9.91856 -0.0656997 -0.178106 xyz
    dof rx ry rz
  end
  begin
    id 15
    name LeftHand
    direction 0.992938 -0.0411687 0.11126
    length 5.32135
    axis -0.00981066 -0.00340928 0.18486 xyz
    dof rx ry rz
  end
  begin
    id 16
    name RightShoulderDummy
    direction -0.998891 -0.0402456 -0.0244411
    length 3.5433
    axis -0.00160567 0.000129431 -0.000308381 xyz
  end
  begin
    id 17
    name RightShoulder
    direction -0.999353 -0.00388479 0.0357579
    length 4.05031
    axis 1.48787 0.256014 0.157284 xyz
    dof rx ry rz
  end
  begin
    id 18
    name RightArm
    direction -0.998583 -0.000660455 -0.0532032
    length 10.3947
    axis -22.4211 -0.109147 -0.943573 xyz
    dof rx ry rz
  end
  begin
    id 19
    name RightForeArm
    direction -0.998898 0.00868588 0.0461311
    length 8.68355
    axis -9.92343 0.0658342 0.178556 xyz
    dof rx ry rz
  end
  begin
    id 20
    name RightHand
    direction -0.992843 -0.0414545 0.112004
    length 5.28593
    axis -0.00982288 0.00332907 -0.185539 xyz
    dof rx ry rz
  end
  begin
    id 21
    name LeftUpLegDummy
    direction 0.718183 -0.695806 0.00816078
    length 4.904
    axis 0 0 0 xyz
  end
  begin
    id 22
    name LeftUpLeg
    direction 0.00445374 -0.999139 0.0412407
    length 17.4976
    axis -0.593655 -0.0138231 0.255969 xyz
    dof rx ry rz
  end
  begin
    id 23
    name LeftLeg
    direction -0.00154847 -0.988829 -0.149046
    length 16.5821
    axis 6.5841 -0.0555156 0.250722 xyz
    dof rx ry rz
  end
  begin
    id 24
    name LeftFoot
    direction -0.00417678 -0.460985 0.887398
    length 3.77069
    axis 5.53694e-005 4.88088e-005 -0.000136194 xyz
    dof rx ry rz
  end
  begin
    id 25
    name LeftToes
    direction 0.00818061 -0.00485256 0.999955
    length 3.85048
    axis 6.41179e-005 4.88477e-005 -0.000136145 xyz
    dof rx ry rz
  end
:hierarchy
  begin
    root RightUpLegDummy SpineDummy LeftUpLegDummy
    RightUpLegDummy RightUpLeg
    RightUpLeg RightLeg
    RightLeg RightFoot
    RightFoot RightToes
    SpineDummy Spine
    Spine Spine1
    Spine1 HEadDummy LeftShoulder1Dummy RightShoulderDummy
    HEadDummy HEad
    LeftShoulder1Dummy LeftShoulder1
    LeftShoulder1 LeftArm
    LeftArm LeftForeArm
    LeftForeArm LeftHand
    RightShoulderDummy RightShoulder
    RightShoulder RightArm
    RightArm RightForeArm
    RightForeArm RightHand
    LeftUpLegDummy LeftUpLeg
    LeftUpLeg LeftLeg
    LeftLeg LeftFoot
    LeftFoot LeftToes
  end

:SAMPLES-PER-SECOND 30
:FULLY-SPECIFIED
:DEGREES
123
root  0.147856 40.2806 0.120946 -178.108 -86.1229 179.372
RightUpLeg  3.24879 -5.77727 -8.71606
RightLeg  -5.25897 -10.9793 0.552131
RightFoot  -0.76508 -0.74764 8.00758
RightToes  6.35927e-011 1.30204e-014 -6.03759e-014
Spine  -0.226617 0.35314 -6.06279
Spine1  4.46398 -1.09995 6.9001
HEad  -36.6413 -1.40557 26.4171
LeftShoulder1  2.6365 -6.51737 -19.8542
LeftArm  9.37172 16.085 -54.9288
LeftForeArm  9.92593 -13.0753 -11.318
LeftHand  -0.312225 -0.285649 6.46482
RightShoulder  1.24114 0.94573 21.6864
RightArm  6.38051 0.521289 53.9054
RightForeArm  29.3182 -0.246753 16.6904
RightHand  -0.191187 -2.67211 -7.7189
LeftUpLeg  4.8126 11.3557 14.3458
LeftLeg  -1.872 22.1885 -1.46256
LeftFoot  -1.64289 0.679402 -7.91003
LeftToes  1.82556e-010 9.56953e-011 7.56925e-011
124
root  0.13968 40.2838 0.139928 -176.133 -85.8996 177.474
RightUpLeg  3.08571 -5.87488 -8.90505
RightLeg  -5.19404 -10.7268 0.516322
RightFoot  -0.698971 -0.779624 8.30501
RightToes  6.35927e-011 1.30204e-014 -6.03759e-014
Spine  0.0603244 0.301802 -5.90674
Spine1  4.11767 -1.19566 7.0869
HEad  -40.9663 -1.57536 25.3249
LeftShoulder1  2.72455 -6.70833 -20.2491
LeftArm  11.4625 16.2878 -54.0012
LeftForeArm  9.40677 -13.5161 -11.1952
LeftHand  -0.304878 -0.703377 5.92107
RightShoulder  1.26242 1.08539 21.2727
RightArm  5.04368 0.431739 54.1716
RightForeArm  29.5118 -0.552067 16.5756
RightHand  -0.207596 -2.49912 -7.96263
LeftUpLeg  4.87901 11.3641 14.2109
LeftLeg  -2.00707 22.3957 -1.65902
LeftFoot  -1.58858 0.67381 -7.82766
LeftToes  1.82556e-010 9.56953e-011 7.56925e-011
125
root  0.13123 40.2856 0.170895 -174.727 -85.5222 176.171
RightUpLeg  2.848 -5.95472 -9.06544
RightLeg  -5.10935 -10.1875 0.437948
RightFoot  -0.783049 -0.737079 7.90596
RightToes  6.35927e-011 1.30204e-014 -6.03759e-014
Spine  0.502046 0.302146 -5.33178
Spine1  3.30722 -1.08589 6.65427
HEad  -44.4026 -2.09981 23.7629
LeftShoulder1  2.78587 -6.92109 -20.301
LeftArm  11.76 16.5767 -53.369
LeftForeArm  9.69737 -13.1687 -11.4613
LeftHand  -0.311021 -0.241998 6.50251
RightShoulder  1.23696 1.00031 21.2219
RightArm  5.86316 0.305065 54.3688
RightForeArm  29.3021 -0.310241 16.642
RightHand  -0.214116 -2.44149 -8.07439
LeftUpLeg  4.98271 11.2932 14.0218
LeftLeg  -2.20056 22.8411 -1.80592
LeftFoot  -1.59227 0.669481 -7.76754
LeftToes  1.82556e-010 9.56953e-011 7.56925e-011
126
root  0.123071 40.2867 0.196578 -173.917 -85.3028 175.292
RightUpLeg  2.80338 -5.92018 -9.15218
RightLeg  -4.9737 -10.0063 0.249219
RightFoot  -0.718843 -0.781374 8.33686
RightToes  6.35927e-011 1.30204e-014 -6.03759e-014
Spine  1.42719 0.219517 -4.87178
Spine1  2.02661 -1.12201 6.56487
HEad  -47.414 -2.45637 21.6859
LeftShoulder1  2.97409 -7.31364 -21.1159
LeftArm  11.3769 17.2144 -52.0952
LeftForeArm  10.3665 -12.8584 -11.6236
LeftHand  -0.303613 -0.0263187 6.56243
RightShoulder  1.24574 1.13061 20.599
RightArm  8.01355 -0.0893322 55.0517
RightForeArm  28.1494 0.434283 16.8069
RightHand  -0.205785 -2.53381 -7.96964
LeftUpLeg  5.18032 11.2828 13.9381
LeftLeg  -2.27636 23.0483 -1.91496
LeftFoot  -1.63827 0.668923 -7.7683
LeftToes  1.82556e-010 9.56953e-011 7.56925e-011
127
root  0.119196 40.2818 0.222748 -172.048 -85.1053 173.378
RightUpLeg  2.8026 -6.07325 -9.39121
RightLeg  -4.97115 -9.64968 0.213851
RightFoot  -0.819748 -0.754702 8.12112
RightToes  6.35927e-011 1.30204e-014 -6.03759e-014
Spine  2.44242 0.110587 -4.19031
Spine1  0.619228 -1.06825 5.90774
HEad  -50.4031 -3.13285 19.3246
LeftShoulder1  2.96189 -7.2215 -21.2521
LeftArm  7.71315 17.1971 -51.5572
LeftForeArm  14.0516 -10.8017 -12.4113
LeftHand  -0.290588 0.145734 6.4736
RightShoulder  1.23623 1.1285 20.3855
RightArm  9.93804 -0.331396 55.6038
RightForeArm  27.3695 0.898304 16.9586
RightHand  -0.219149 -2.06954 -7.40585
LeftUpLeg  5.27692 11.2156 13.7306
LeftLeg  -2.26788 23.2913 -1.98332
LeftFoot  -1.65412 0.671618 -7.82113
LeftToes  1.82556e-010 9.56953e-011 7.56925e-011
128
root  0.100427 40.2846 0.240867 -171.202 -84.9912 172.635
RightUpLeg  2.64516 -6.17932 -9.53157
RightLeg  -4.88042 -9.445 0.227218
RightFoot  -0.787444 -0.773612 8.30283
RightToes  6.35927e-011 1.30204e-014 -6.03759e-014
Spine  3.14848 -0.123974 -3.27177
Spine1  -0.792119 -1.08283 4.96298
HEad  -52.2383 -4.2492 16.6611
LeftShoulder1  2.90952 -7.03955 -21.2305
LeftArm  4.96506 17.4714 -51.1138
LeftForeArm  16.4888 -9.31496 -12.8741
LeftHand  -0.278019 0.365992 6.44373
RightShoulder  1.2225 1.10089 20.2378
RightArm  10.7735 -0.433444 56.2976
RightForeArm  27.3221 0.786741 17.0788
RightHand  -0.186551 -2.61023 -7.37314
LeftUpLeg  5.23953 11.1329 13.5742
LeftLeg  -2.31468 23.4837 -2.00507
LeftFoot  -1.69235 0.660878 -7.66365
LeftToes  1.82556e-010 9.56953e-011 7.56925e-011
129
root  0.067021 40.2825 0.253026 -170.595 -84.9322 172.246
RightUpLeg  2.4419 -6.13683 -9.5642
RightLeg  -4.87276 -9.47676 0.186218
RightFoot  -0.758503 -0.786368 8.41977
RightToes  6.35927e-011 1.30204e-014 -6.03759e-014
Spine  3.27795 -0.387966 -2.5003
Spine1  -1.72311 -1.1668 4.14315
HEad  -53.6496 -5.04226 14.3114
LeftShoulder1  2.94092 -7.10244 -21.3714
LeftArm  1.95281 17.8714 -50.6771
LeftForeArm  18.5947 -8.02496 -13.0235
LeftHand  -0.243436 0.845668 6.17128
RightShoulder  1.22502 1.12161 20.1682
RightArm  11.8947 -0.27759 56.8906
RightForeArm  27.5944 0.700155 17.2011
RightHand  -0.194319 -2.31503 -7.01169
LeftUpLeg  5.19049 11.1282 13.4969
LeftLeg  -2.56315 23.6211 -2.19663
LeftFoot  -1.66998 0.653386 -7.55682
LeftToes  1.82556e-010 9.56953e-011 7.56925e-011
130
root  0.0227019 40.2818 0.26172 -169.727 -84.8117 171.525
RightUpLeg  2.45497 -6.15792 -9.6449
RightLeg  -5.15955 -9.35147 0.204996
RightFoot  -0.783039 -0.763712 8.19334
RightToes  6.35927e-011 1.30204e-014 -6.03759e-014
Spine  3.16608 -0.535592 -2.12807
Spine1  -2.31072 -1.21395 3.68213
HEad  -54.638 -5.73012 12.2226
LeftShoulder1  2.99654 -7.19424 -21.6716
LeftArm  0.582999 18.1744 -50.4011
LeftForeArm  18.7216 -7.40461 -13.1148
LeftHand  -0.232273 1.30059 6.49523
RightShoulder  1.19085 1.00236 20.1093
RightArm  12.8502 -0.0119857 57.3611
RightForeArm  27.4809 0.70069 17.2983
RightHand  -0.201162 -2.28967 -7.21259
LeftUpLeg  5.26089 11.0884 13.3827
LeftLeg  -2.84035 23.8184 -2.36953
LeftFoot  -1.63672 0.652471 -7.55209
LeftToes  1.82556e-010 9.56953e-011 7.56925e-011
131
root  -0.0139158 40.2815 0.267665 -169.452 -84.6541 171.281
RightUpLeg  2.42482 -6.19416 -9.71008
RightLeg  -5.14441 -9.25477 0.195543
RightFoot  -0.77191 -0.785591 8.42112
RightToes  6.35927e-011 1.30204e-014 -6.03759e-014
Spine  3.21759 -0.576778 -1.50115
Spine1  -2.9392 -1.07741 2.7386
HEad  -55.2595 -6.22404 10.5371
LeftShoulder1  3.00415 -7.23893 -21.6234
LeftArm  -2.02664 18.1242 -50.5753
LeftForeArm  20.7635 -6.2192 -13.0912
LeftHand  -0.246527 1.026 6.4992
RightShoulder  1.14292 0.855519 19.8861
RightArm  13.7816 -0.101236 57.9354
RightForeArm  26.4176 1.33265 17.2886
RightHand  -0.163317 -2.74446 -6.66445
LeftUpLeg  5.47154 11.0762 13.3418
LeftLeg  -3.14859 23.9694 -2.54722
LeftFoot  -1.56786 0.648403 -7.49626
LeftToes  1.82556e-010 9.56953e-011 7.56925e-011
